<?xml version="1.0" encoding="utf-8"?>
<svg xmlns="http://www.w3.org/2000/svg" viewBox="0 213.328 479.992 82.617" xmlns:bx="https://boxy-svg.com" width="479.992px" height="82.617px"><defs><bx:export><bx:file format="svg"/></bx:export></defs><path id="Stat" class="cls-1" d="M 43.093 275.554 C 42.133 277.328 40.754 278.84 39.075 279.958 C 37.162 281.211 35.048 282.127 32.825 282.666 C 30.149 283.329 27.399 283.65 24.641 283.619 C 20.604 283.64 16.581 283.13 12.678 282.101 C 9.174 281.187 5.766 279.942 2.5 278.381 L 0 290.404 C 1.234 291.138 2.529 291.765 3.869 292.279 C 5.702 293 7.582 293.596 9.494 294.065 C 11.809 294.637 14.153 295.085 16.516 295.404 C 19.169 295.768 21.843 295.947 24.521 295.94 C 29.406 295.997 34.276 295.366 38.985 294.066 C 42.981 292.979 46.73 291.129 50.026 288.619 C 53.008 286.305 55.412 283.33 57.049 279.929 C 58.743 276.299 59.588 272.33 59.519 268.325 C 59.519 264.992 58.885 262.194 57.614 259.932 C 56.391 257.723 54.681 255.82 52.615 254.367 C 50.465 252.875 48.123 251.684 45.651 250.826 C 43.071 249.913 40.492 249.06 37.913 248.266 C 36.128 247.71 34.432 247.125 32.824 246.511 C 31.337 245.96 29.927 245.219 28.628 244.309 C 27.458 243.477 26.483 242.401 25.771 241.154 C 25.021 239.756 24.651 238.186 24.699 236.601 C 24.612 233.443 26.108 230.45 28.687 228.625 C 31.345 226.642 35.035 225.651 39.757 225.651 C 43.313 225.653 46.856 226.053 50.323 226.841 C 54.414 227.82 58.424 229.114 62.317 230.71 L 64.877 218.628 C 60.958 216.986 56.893 215.721 52.736 214.848 C 48.162 213.84 43.491 213.331 38.808 213.331 C 34.749 213.277 30.71 213.881 26.844 215.116 C 23.495 216.181 20.39 217.898 17.707 220.169 C 15.202 222.332 13.209 225.027 11.874 228.057 C 10.476 231.276 9.776 234.755 9.821 238.264 C 9.767 240.908 10.233 243.537 11.19 246.002 C 12.041 248.132 13.317 250.066 14.94 251.686 C 16.59 253.299 18.488 254.635 20.563 255.645 C 22.819 256.753 25.157 257.688 27.556 258.442 C 29.699 259.077 31.792 259.682 33.835 260.257 C 35.694 260.765 37.507 261.432 39.251 262.251 C 40.709 262.923 42.008 263.896 43.061 265.108 C 44.071 266.37 44.589 267.957 44.519 269.572 C 44.554 271.654 44.063 273.711 43.093 275.554 Z M 112.791 236.776 L 97.792 236.776 L 101.125 220.646 L 87.078 220.646 L 83.685 236.776 L 72.972 236.776 L 70.532 248.381 L 81.304 248.381 L 75.233 277.665 C 74.986 278.774 74.807 279.898 74.697 281.029 C 74.617 281.962 74.577 282.766 74.578 283.44 C 74.549 285.228 74.862 287.006 75.501 288.678 C 76.103 290.209 77.086 291.561 78.357 292.606 C 79.807 293.758 81.479 294.599 83.268 295.076 C 85.577 295.692 87.961 295.983 90.351 295.939 C 92.47 295.93 94.587 295.791 96.689 295.522 C 98.788 295.271 100.866 294.873 102.909 294.332 L 105.23 282.606 C 103.564 283.003 101.678 283.351 99.574 283.648 C 97.861 283.913 96.13 284.063 94.396 284.094 C 92.413 284.094 91.025 283.807 90.23 283.231 C 89.435 282.656 89.038 281.634 89.04 280.166 C 89.047 279.597 89.097 279.03 89.188 278.47 C 89.286 277.815 89.434 277.051 89.634 276.178 L 95.348 248.382 L 110.348 248.382 L 112.791 236.776 Z M 163.145 279.065 C 163.224 278.411 163.343 277.706 163.502 276.953 L 171.835 236.775 L 159.812 236.775 L 157.729 242.489 L 157.49 242.489 C 155.836 240.173 153.626 238.31 151.062 237.073 C 148.623 235.927 145.96 235.338 143.265 235.347 C 140.422 235.32 137.603 235.888 134.992 237.014 C 132.443 238.131 130.107 239.682 128.088 241.597 C 125.964 243.616 124.131 245.919 122.641 248.442 C 121.049 251.112 119.723 253.934 118.683 256.864 C 117.599 259.909 116.792 263.047 116.273 266.238 C 115.741 269.445 115.472 272.691 115.469 275.941 C 115.436 278.72 115.817 281.488 116.6 284.155 C 117.268 286.452 118.38 288.595 119.874 290.464 C 121.286 292.198 123.078 293.582 125.111 294.511 C 127.3 295.49 129.677 295.978 132.074 295.94 C 135.283 295.894 138.443 295.143 141.33 293.738 C 144.483 292.271 147.429 289.85 150.169 286.477 L 150.407 286.477 C 150.844 289.294 151.905 291.467 153.592 292.994 C 155.278 294.521 157.749 295.285 161.003 295.286 C 163.385 295.273 165.758 295.013 168.086 294.512 L 170.524 283.204 C 169.125 283.42 167.713 283.539 166.298 283.561 C 165.44 283.614 164.59 283.373 163.887 282.878 C 163.311 282.423 163.024 281.659 163.024 280.587 C 163.036 280.078 163.075 279.57 163.145 279.065 Z M 152.076 264.334 C 151.593 266.704 150.926 269.032 150.083 271.298 C 149.37 273.203 148.441 275.02 147.315 276.714 C 145.893 278.924 144.053 280.835 141.899 282.339 C 140.13 283.623 138.012 284.34 135.828 284.392 C 133.975 284.481 132.216 283.574 131.214 282.012 C 130.163 280.425 129.637 277.945 129.637 274.572 C 129.649 272.709 129.788 270.849 130.054 269.006 C 130.343 266.946 130.771 264.908 131.333 262.906 C 131.902 260.859 132.629 258.859 133.506 256.924 C 134.323 255.09 135.373 253.369 136.631 251.804 C 137.773 250.375 139.164 249.165 140.738 248.233 C 142.282 247.336 144.041 246.873 145.827 246.894 C 146.844 246.886 147.856 247.027 148.833 247.311 C 149.719 247.57 150.577 247.919 151.392 248.352 C 152.125 248.74 152.805 249.22 153.416 249.781 C 153.937 250.255 154.405 250.784 154.814 251.358 L 152.076 264.334 Z M 223.915 236.776 L 208.918 236.776 L 212.251 220.646 L 198.202 220.646 L 194.809 236.776 L 184.096 236.776 L 181.658 248.381 L 192.434 248.381 L 186.357 277.667 C 186.11 278.776 185.931 279.9 185.821 281.031 C 185.741 281.964 185.702 282.768 185.702 283.441 C 185.674 285.23 185.987 287.008 186.625 288.68 C 187.227 290.21 188.211 291.562 189.481 292.608 C 190.93 293.76 192.602 294.601 194.392 295.078 C 196.701 295.694 199.085 295.985 201.475 295.941 C 203.594 295.932 205.711 295.793 207.813 295.524 C 209.912 295.273 211.99 294.875 214.033 294.334 L 216.354 282.608 C 214.688 283.005 212.802 283.353 210.698 283.65 C 208.984 283.915 207.254 284.065 205.52 284.096 C 203.537 284.096 202.148 283.809 201.354 283.233 C 200.559 282.658 200.162 281.636 200.163 280.168 C 200.171 279.599 200.221 279.032 200.312 278.471 C 200.41 277.817 200.558 277.053 200.758 276.18 L 206.472 248.384 L 221.472 248.384 L 223.915 236.776 Z" style="fill: rgb(233, 221, 27); fill-rule: evenodd; stroke-width: 1px;"/><path id="Pulse" class="cls-1" d="M 243.769 264.925 C 246.536 265.304 249.33 265.492 252.126 265.486 C 257.809 265.486 262.836 264.831 267.211 263.522 C 271.2 262.408 274.941 260.544 278.231 258.028 C 281.118 255.778 283.443 252.888 285.018 249.587 C 286.593 246.207 287.389 242.517 287.345 238.789 C 287.426 235.032 286.372 231.338 284.316 228.19 C 282.298 225.161 279.045 222.9 274.558 221.403 C 270.746 220.133 265.304 219.496 258.239 219.496 L 239.452 219.496 L 223.915 294.537 L 237.599 294.537 L 243.769 264.925 Z M 250.781 230.995 L 259.136 230.995 C 261.012 230.975 262.883 231.069 264.745 231.274 C 266.013 231.406 267.259 231.706 268.446 232.17 C 269.92 232.735 271.217 233.684 272.203 234.917 C 273.162 236.191 273.656 237.754 273.606 239.349 C 273.629 241.411 273.188 243.452 272.314 245.321 C 271.431 247.162 270.101 248.753 268.446 249.948 C 266.479 251.334 264.273 252.341 261.94 252.92 C 258.934 253.678 255.841 254.036 252.742 253.987 C 250.528 254.008 248.313 253.84 246.126 253.481 L 250.781 230.995 Z M 323.631 294.339 C 326.426 293.428 329.016 291.981 331.259 290.079 C 333.217 288.379 334.811 286.3 335.942 283.966 C 337.037 281.687 337.854 279.287 338.381 276.815 L 345.953 240.192 L 332.719 240.192 L 325.874 273.169 C 325.542 274.868 325.043 276.529 324.388 278.131 C 323.828 279.518 323.02 280.792 322.005 281.889 C 321.01 282.932 319.793 283.738 318.445 284.244 C 316.836 284.822 315.133 285.098 313.423 285.056 C 310.657 285.056 308.656 284.422 307.422 283.151 C 306.189 281.879 305.574 280.123 305.573 277.877 C 305.573 277.243 305.611 276.543 305.686 275.774 C 305.769 274.938 305.902 274.106 306.078 273.28 L 312.919 240.192 L 299.683 240.192 L 292.954 272.833 C 292.654 274.403 292.439 275.692 292.311 276.701 C 292.188 277.595 292.122 278.493 292.114 279.394 C 292.09 281.68 292.478 283.95 293.264 286.095 C 294.016 288.116 295.26 289.919 296.882 291.34 C 298.721 292.905 300.87 294.062 303.189 294.734 C 306.187 295.597 309.298 296.003 312.415 295.939 C 316.826 295.941 320.565 295.406 323.631 294.339 Z M 351.728 278.778 C 351.276 280.784 351.031 282.833 351.001 284.89 C 351.001 288.331 352.001 290.939 354.001 292.714 C 356.001 294.489 358.983 295.378 362.947 295.378 C 364.239 295.375 365.532 295.3 366.816 295.155 C 368.162 295.005 369.265 294.837 370.125 294.649 L 372.535 283.545 C 371.228 283.836 369.893 283.987 368.553 283.994 C 367.282 283.994 366.329 283.76 365.692 283.292 C 365.058 282.824 364.739 282.068 364.738 281.02 C 364.794 279.925 364.944 278.836 365.188 277.768 L 378.594 213.328 L 365.358 213.328 L 351.728 278.778 Z M 405.289 283.292 C 403.345 284.546 400.503 285.172 396.763 285.171 C 394.191 285.172 391.625 284.899 389.109 284.359 C 386.555 283.807 384.05 283.046 381.619 282.086 L 379.432 292.685 C 380.283 293.07 381.153 293.407 382.041 293.697 C 383.312 294.117 384.603 294.474 385.91 294.763 C 387.549 295.126 389.206 295.408 390.872 295.605 C 392.808 295.835 394.757 295.946 396.707 295.941 C 400.073 295.976 403.429 295.573 406.688 294.736 C 409.476 294.028 412.102 292.799 414.432 291.115 C 416.555 289.561 418.276 287.524 419.451 285.171 C 420.673 282.618 421.279 279.813 421.218 276.982 C 421.29 274.897 420.877 272.825 420.014 270.925 C 419.253 269.379 418.195 267.995 416.899 266.859 C 415.626 265.755 414.189 264.855 412.637 264.194 C 411.068 263.522 409.515 262.905 407.983 262.343 C 406.786 261.895 405.636 261.465 404.534 261.053 C 403.517 260.686 402.541 260.215 401.617 259.653 C 400.832 259.182 400.146 258.563 399.595 257.829 C 399.074 257.084 398.81 256.188 398.838 255.277 C 398.811 253.649 399.6 252.112 400.94 251.184 C 402.345 250.137 404.333 249.614 406.915 249.614 C 409.491 249.635 412.058 249.936 414.57 250.511 C 417.399 251.147 420.166 252.03 422.842 253.147 L 424.973 242.773 C 423.719 242.173 422.425 241.658 421.103 241.23 C 419.681 240.762 418.196 240.35 416.647 239.995 C 415.098 239.639 413.507 239.36 411.88 239.153 C 410.27 238.95 408.649 238.848 407.028 238.845 C 404.28 238.832 401.544 239.199 398.895 239.94 C 396.446 240.604 394.143 241.726 392.109 243.246 C 390.153 244.738 388.561 246.657 387.456 248.855 C 386.246 251.341 385.648 254.084 385.716 256.849 C 385.671 258.647 385.966 260.435 386.586 262.12 C 387.126 263.519 387.924 264.804 388.941 265.907 C 389.919 266.962 391.053 267.861 392.305 268.572 C 393.558 269.282 394.86 269.901 396.203 270.421 C 397.661 270.984 399.111 271.488 400.552 271.938 C 401.866 272.339 403.149 272.836 404.391 273.424 C 405.405 273.892 406.334 274.528 407.14 275.302 C 407.858 276.033 408.245 277.028 408.205 278.051 C 408.257 280.198 407.142 282.203 405.289 283.292 Z M 465.58 257.1 C 464.675 258.371 463.457 259.385 462.046 260.046 C 459.986 261.04 457.797 261.739 455.54 262.12 C 452.245 262.695 448.902 262.956 445.558 262.906 C 446.132 260.838 447 258.864 448.136 257.045 C 449.144 255.433 450.383 253.979 451.812 252.727 C 453.105 251.591 454.585 250.69 456.186 250.061 C 457.642 249.482 459.191 249.177 460.758 249.164 C 462.74 249.164 464.216 249.612 465.188 250.509 C 466.116 251.311 466.649 252.481 466.646 253.705 C 466.631 254.919 466.26 256.098 465.58 257.1 Z M 478.647 247.595 C 477.754 245.77 476.46 244.168 474.862 242.912 C 473.094 241.55 471.086 240.532 468.944 239.91 C 466.412 239.172 463.786 238.813 461.148 238.847 C 458.046 238.816 454.957 239.292 452.006 240.248 C 449.293 241.138 446.732 242.432 444.406 244.09 C 442.146 245.716 440.134 247.661 438.434 249.866 C 436.709 252.098 435.261 254.526 434.115 257.101 C 432.95 259.72 432.065 262.456 431.478 265.262 C 430.883 268.082 430.582 270.957 430.581 273.843 C 430.547 276.872 431.019 279.887 431.984 282.76 C 432.874 285.379 434.339 287.767 436.274 289.744 C 438.341 291.796 440.842 293.358 443.594 294.315 C 446.548 295.397 450.023 295.941 454.023 295.942 C 457.211 295.957 460.395 295.666 463.529 295.072 C 466.24 294.567 468.896 293.807 471.463 292.799 L 473.876 281.135 C 471.2 282.429 468.374 283.389 465.464 283.995 C 462.446 284.683 459.362 285.04 456.265 285.061 C 454.488 285.081 452.716 284.866 450.994 284.419 C 449.523 284.04 448.155 283.34 446.984 282.369 C 445.853 281.396 444.985 280.151 444.459 278.753 C 443.849 277.094 443.554 275.333 443.591 273.565 L 443.591 273.226 C 444.564 273.264 445.368 273.282 446.002 273.281 C 450.898 273.339 455.784 272.888 460.584 271.935 C 464.81 271.038 468.361 269.739 471.239 268.038 C 473.893 266.55 476.138 264.432 477.777 261.868 C 479.264 259.41 480.033 256.582 479.99 253.708 C 480.018 251.594 479.56 249.503 478.647 247.595 Z" style="fill: rgb(26, 62, 219); fill-rule: evenodd; stroke-width: 1px;"/></svg>